EMG
version=1
nRows=27
nColumns=17
inDegrees=no
endheader
time	_right_gast_med	_right_glut_max	_left_gast_med	_left_glut_max	_right_glut_med	_right_bic_fem	_right_rect_fem	_right_vast_lat	_right_vast_med	_right_tens_fasc_lat	_left_glut_med	_left_bic_fem	_left_rect_fem	_left_vast_lat	_left_vast_med	_left_tens_fasc_lat
      0.00000000	     -0.34712625	      0.19862553	     -0.03349820	      0.02108287	      0.01968531	     -0.00475711	      0.03499092	     -0.02587341	      0.18156016	     -0.01271786	      0.00633107	     -0.00172337	      0.02127566	     -0.10427693	      0.02126586	     -0.02680162
      0.01000000	     -1.21213603	      0.21293007	     -0.01768563	     -0.02595711	      0.00059824	     -0.01478972	      0.04728170	     -0.01168417	      0.13772143	     -0.01731374	      0.02949961	      0.02804882	      0.02520102	     -0.10274416	     -0.02937948	      0.00702724
      0.02000000	     -1.58833182	      0.08072530	     -0.00365210	     -0.08038610	      0.01526091	     -0.04682676	      0.07764968	     -0.00107391	      0.08706281	     -0.01650406	      0.04938345	      0.02448697	      0.03203495	     -0.08727165	     -0.08953694	      0.02416353
      0.03000000	      0.87527031	      0.15954074	      0.01075876	     -0.01432430	      0.02530374	     -0.06685548	      0.06788055	      0.03847830	      0.08048953	     -0.01826384	      0.04602829	     -0.04359315	      0.02972521	     -0.06961091	     -0.10478821	      0.03965371
      0.04000000	      3.17607236	      0.22383657	      0.03996436	      0.07553738	      0.01596258	     -0.02795971	      0.02083937	      0.08910163	      0.08334892	     -0.00455062	      0.05110123	     -0.11928796	      0.01965909	     -0.02573208	     -0.05805955	      0.06033311
      0.05000000	      1.98940825	      0.05565828	      0.05056515	      0.06529699	      0.00751696	      0.00670498	      0.01350970	      0.14905846	      0.06910746	     -0.00110963	      0.04906844	     -0.12557940	      0.01855722	      0.06623569	      0.01446900	      0.06217652
      0.06000000	     -1.56549978	     -0.07367793	     -0.01594942	     -0.03031825	      0.00536777	      0.02556109	      0.01411071	      0.19370642	      0.06026056	      0.00017001	      0.00242396	     -0.08099660	      0.01099258	      0.12360764	      0.03217337	      0.05395103
      0.07000000	     -1.88474715	     -0.09598942	     -0.01112547	     -0.10579077	      0.00772291	      0.03550794	      0.01731253	      0.12156570	      0.02999682	     -0.00109037	     -0.06954761	      0.01248661	     -0.00133699	      0.08794981	      0.01698777	      0.03886513
      0.08000000	      1.58762050	     -0.10693005	      0.04972349	     -0.07935273	      0.01586060	      0.01622505	      0.02729118	     -0.04412789	     -0.09653037	     -0.00887155	     -0.08312606	      0.04423700	     -0.00086708	      0.01561312	      0.04404534	      0.02776017
      0.09000000	      2.41910863	     -0.07128773	      0.06882965	     -0.00659626	      0.03092864	     -0.00382039	      0.03038765	     -0.15263705	     -0.21229939	     -0.00467250	     -0.03700142	      0.05762509	     -0.00154843	     -0.01859636	      0.13940224	      0.01295259
      0.10000000	      0.91193622	      0.13365664	      0.01212944	      0.03350782	      0.03699434	      0.00463293	      0.03472791	     -0.16104527	     -0.17761412	      0.00974411	      0.02599622	      0.01828145	      0.00673580	      0.01196801	      0.19499263	      0.00082193
      0.11000000	      0.63390493	      0.30978861	     -0.03428672	      0.03016024	      0.02634245	      0.03585858	      0.03991003	     -0.14401673	     -0.06903397	      0.01784599	      0.06300630	      0.01505017	      0.01146632	      0.05461143	     -0.04256865	     -0.00971782
      0.12000000	      1.30845189	      0.01530499	     -0.02498414	      0.05212601	      0.00776288	      0.05305829	      0.03476912	     -0.12211677	     -0.00074322	      0.00407600	      0.05229734	      0.02747573	      0.00964621	      0.05111887	     -0.50464833	     -0.05706708
      0.13000000	      1.20258355	     -0.41282576	      0.06548298	      0.09155234	      0.00801302	      0.04520495	      0.01300034	     -0.07211149	      0.00042604	     -0.00704804	      0.02617424	      0.01714900	      0.02732506	     -0.03416026	     -0.47857314	     -0.11634570
      0.14000000	     -0.11990783	     -0.45176211	      0.02821713	      0.06268179	      0.02657381	      0.02756984	     -0.00689459	      0.00360195	     -0.00339607	     -0.00189504	      0.01141078	      0.01673743	      0.02861243	     -0.11855473	      0.12962581	     -0.04853829
      0.15000000	     -2.21928048	     -0.23263928	     -0.10755526	     -0.00324805	      0.06175060	      0.01470913	     -0.01014465	      0.05588428	     -0.00733068	     -0.00378547	     -0.00411178	      0.03428061	     -0.00415409	     -0.04481879	      0.53198922	      0.07023481
      0.16000000	     -3.17609096	     -0.02633655	     -0.07808699	     -0.01481892	      0.05564807	      0.01598625	     -0.01362994	      0.06562901	     -0.05090167	     -0.03680098	     -0.03638703	      0.01355334	     -0.01333676	      0.09672236	      0.41816467	      0.05685894
      0.17000000	     -2.74482107	      0.07999895	      0.02905999	     -0.04565790	     -0.00329711	      0.01824152	     -0.02524375	      0.04840294	     -0.08328530	     -0.03796367	     -0.06159224	     -0.00299900	     -0.00772003	      0.11866914	      0.21404932	     -0.04157970
      0.18000000	     -1.45626235	      0.10191780	      0.05027363	     -0.08077602	     -0.05117625	      0.01181819	     -0.02552439	      0.03258793	     -0.03961719	      0.01716806	     -0.07758471	      0.01597389	     -0.00837035	      0.06637358	      0.18429591	     -0.07378139
      0.19000000	     -0.38791266	      0.12207629	      0.06075023	     -0.01580172	     -0.09608555	     -0.01378881	     -0.01239190	      0.03737276	      0.02222407	      0.01384178	     -0.06568156	      0.01968410	     -0.05014606	      0.04808220	      0.03090793	     -0.00424027
      0.20000000	      0.21756889	      0.13819131	      0.09311215	     -0.01572127	     -0.10947496	     -0.03314487	     -0.01586733	      0.03870212	      0.03537939	     -0.00477808	     -0.02786746	      0.00344362	     -0.02856515	      0.02086580	     -0.27513561	      0.10249607
      0.21000000	      0.48660052	      0.05961614	      0.02619998	     -0.02832308	     -0.04850090	     -0.01593741	     -0.01161650	      0.02770855	      0.02596552	     -0.00803149	     -0.01558389	     -0.02351987	      0.10615183	      0.09861110	     -0.51351082	      0.05336835
      0.22000000	      0.52999699	     -0.06914638	     -0.00113155	      0.00110530	      0.04487628	      0.00696202	      0.00033363	      0.01179507	      0.02306934	      0.02852007	     -0.02707645	     -0.04186946	      0.15630557	      0.06727958	     -0.12607330	     -0.03202116
      0.23000000	      0.45443630	     -0.29975262	     -0.02593049	      0.05545565	      0.09823611	      0.01739950	     -0.00026037	      0.01467216	      0.02049162	      0.06252852	     -0.05742261	     -0.02855236	      0.07145073	     -0.06567530	      0.24263446	      0.05678948
      0.24000000	      0.31795985	     -0.23498274	     -0.12436447	      0.02289862	      0.07844622	      0.00645602	      0.01191224	      0.03427275	      0.01611228	      0.04187180	      0.05055703	      0.05989948	     -0.08179314	     -0.05603378	      0.20583248	      0.18542847
      0.25000000	      0.43375501	      0.20103852	      0.00912999	     -0.09752119	      0.02914376	     -0.00426102	      0.04234438	      0.04164875	      0.01375161	      0.00584453	      0.16515845	      0.04601221	     -0.06204741	      0.06327035	      0.07290779	      0.05111061
      0.26000000	      1.34593260	      0.05354390	      0.16354634	      0.03701033	      0.01069699	      0.02058655	      0.04472798	      0.05609598	      0.01580829	      0.01531587	      0.16635615	      0.01010031	      0.05042629	      0.09219935	      0.00166043	     -0.12566435
